<svg width="257" height="251" viewBox="0 0 257 251" fill="none" xmlns="http://www.w3.org/2000/svg">
<g filter="url(#filter0_f)">
<ellipse cx="128.5" cy="125.5" rx="48.5" ry="45.5" fill="#00FF0A"/>
</g>
<g clip-path="url(#clip0)">
<path d="M163.757 101.52L163.754 101.455C163.718 100.658 163.694 99.8146 163.68 98.8761C163.612 94.2997 159.974 90.5142 155.397 90.2584C145.854 89.7258 138.472 86.6141 132.164 80.466L132.11 80.4147C130.053 78.5283 126.949 78.5283 124.891 80.4147L124.837 80.466C118.53 86.6141 111.147 89.7258 101.604 90.259C97.0281 90.5142 93.3895 94.2997 93.3217 98.8767C93.3078 99.8089 93.2831 100.652 93.247 101.455L93.2432 101.605C93.0577 111.336 92.8272 123.447 96.8786 134.439C99.1064 140.484 102.48 145.739 106.906 150.058C111.947 154.977 118.549 158.882 126.529 161.665C126.788 161.755 127.058 161.829 127.333 161.884C127.72 161.961 128.111 162 128.501 162C128.891 162 129.281 161.961 129.668 161.884C129.943 161.829 130.215 161.755 130.476 161.664C138.446 158.876 145.041 154.969 150.078 150.051C154.501 145.73 157.875 140.474 160.105 134.428C164.172 123.403 163.942 111.269 163.757 101.52ZM155.535 132.743C151.262 144.329 142.54 152.285 128.869 157.066C128.82 157.083 128.768 157.097 128.714 157.108C128.573 157.136 128.429 157.136 128.286 157.107C128.233 157.097 128.181 157.083 128.133 157.066C114.447 152.294 105.719 144.342 101.449 132.756C97.7145 122.623 97.926 111.506 98.1128 101.698L98.1141 101.644C98.1521 100.801 98.1774 99.9184 98.1913 98.9483C98.2217 96.9162 99.8403 95.235 101.876 95.1216C107.276 94.8202 112.021 93.7766 116.38 91.9314C120.733 90.0887 124.6 87.4911 128.199 83.9906C128.382 83.8361 128.62 83.8354 128.802 83.9906C132.402 87.4911 136.269 90.0887 140.621 91.9314C144.981 93.7766 149.725 94.8202 155.126 95.1216C157.162 95.235 158.78 96.9162 158.81 98.9489C158.824 99.9241 158.85 100.807 158.888 101.644C159.074 111.463 159.28 122.589 155.535 132.743Z" fill="black"/>
<path d="M128.499 99.8165C117.094 99.8165 107.815 109.096 107.815 120.501C107.815 131.907 117.094 141.187 128.499 141.187C139.905 141.187 149.184 131.907 149.184 120.501C149.184 109.096 139.905 99.8165 128.499 99.8165ZM128.499 136.316C119.779 136.316 112.685 129.222 112.685 120.501C112.685 111.781 119.779 104.687 128.499 104.687C137.219 104.687 144.313 111.781 144.313 120.501C144.313 129.222 137.219 136.316 128.499 136.316Z" fill="black"/>
<path d="M134.444 114.08L124.837 123.687L122.229 121.079C121.278 120.128 119.736 120.128 118.785 121.079C117.834 122.031 117.834 123.573 118.785 124.523L123.115 128.853C123.591 129.329 124.214 129.566 124.837 129.566C125.46 129.566 126.083 129.329 126.559 128.853L137.888 117.523C138.839 116.572 138.839 115.03 137.888 114.08C136.937 113.128 135.395 113.128 134.444 114.08Z" fill="black"/>
</g>
<defs>
<filter id="filter0_f" x="0" y="0" width="257" height="251" filterUnits="userSpaceOnUse" color-interpolation-filters="sRGB">
<feFlood flood-opacity="0" result="BackgroundImageFix"/>
<feBlend mode="normal" in="SourceGraphic" in2="BackgroundImageFix" result="shape"/>
<feGaussianBlur stdDeviation="40" result="effect1_foregroundBlur"/>
</filter>
<clipPath id="clip0">
<rect width="83" height="83" fill="white" transform="translate(87 79)"/>
</clipPath>
</defs>
</svg>
