<svg width="699" height="228" viewBox="0 0 699 228" fill="none" xmlns="http://www.w3.org/2000/svg">
<g filter="url(#filter0_d)">
<rect y="46" width="599" height="128" rx="64" fill="url(#paint0_linear)"/>
<path d="M92.3203 101.215L98.4551 91.4062H102.428L94.3418 104.098L102.621 117H98.6133L92.3203 107.016L85.9922 117H82.002L90.2988 104.098L82.1953 91.4062H86.1504L92.3203 101.215ZM104.783 107.314C104.783 105.451 105.146 103.775 105.873 102.287C106.611 100.799 107.631 99.6504 108.932 98.8418C110.244 98.0332 111.738 97.6289 113.414 97.6289C116.004 97.6289 118.096 98.5254 119.689 100.318C121.295 102.111 122.098 104.496 122.098 107.473V107.701C122.098 109.553 121.74 111.217 121.025 112.693C120.322 114.158 119.309 115.301 117.984 116.121C116.672 116.941 115.16 117.352 113.449 117.352C110.871 117.352 108.779 116.455 107.174 114.662C105.58 112.869 104.783 110.496 104.783 107.543V107.314ZM108.053 107.701C108.053 109.811 108.539 111.504 109.512 112.781C110.496 114.059 111.809 114.697 113.449 114.697C115.102 114.697 116.414 114.053 117.387 112.764C118.359 111.463 118.846 109.646 118.846 107.314C118.846 105.229 118.348 103.541 117.352 102.252C116.367 100.951 115.055 100.301 113.414 100.301C111.809 100.301 110.514 100.939 109.529 102.217C108.545 103.494 108.053 105.322 108.053 107.701ZM140.537 117H137.268V110.109C135.838 110.484 134.373 110.672 132.873 110.672C130.494 110.672 128.678 110.062 127.424 108.844C126.182 107.625 125.549 105.891 125.525 103.641V97.9629H128.777V103.746C128.836 106.582 130.201 108 132.873 108C134.373 108 135.838 107.812 137.268 107.438V97.9805H140.537V117ZM151.98 112.236L156.41 97.9805H159.891L152.244 119.936C151.061 123.1 149.18 124.682 146.602 124.682L145.986 124.629L144.773 124.4V121.764L145.652 121.834C146.754 121.834 147.609 121.611 148.219 121.166C148.84 120.721 149.35 119.906 149.748 118.723L150.469 116.789L143.684 97.9805H147.234L151.98 112.236ZM187.277 117H184.025V108.879H175.289V117H172.02V97.9805H175.289V106.225H184.025V97.9805H187.277V117ZM204.258 117C204.07 116.625 203.918 115.957 203.801 114.996C202.289 116.566 200.484 117.352 198.387 117.352C196.512 117.352 194.971 116.824 193.764 115.77C192.568 114.703 191.971 113.355 191.971 111.727C191.971 109.746 192.721 108.211 194.221 107.121C195.732 106.02 197.854 105.469 200.584 105.469H203.748V103.975C203.748 102.838 203.408 101.936 202.729 101.268C202.049 100.588 201.047 100.248 199.723 100.248C198.562 100.248 197.59 100.541 196.805 101.127C196.02 101.713 195.627 102.422 195.627 103.254H192.357C192.357 102.305 192.691 101.391 193.359 100.512C194.039 99.6211 194.953 98.918 196.102 98.4023C197.262 97.8867 198.533 97.6289 199.916 97.6289C202.107 97.6289 203.824 98.1797 205.066 99.2812C206.309 100.371 206.953 101.877 207 103.799V112.553C207 114.299 207.223 115.688 207.668 116.719V117H204.258ZM198.861 114.521C199.881 114.521 200.848 114.258 201.762 113.73C202.676 113.203 203.338 112.518 203.748 111.674V107.771H201.199C197.215 107.771 195.223 108.938 195.223 111.27C195.223 112.289 195.562 113.086 196.242 113.66C196.922 114.234 197.795 114.521 198.861 114.521ZM236.584 117H233.332V100.67H224.578V117H221.309V97.9805H236.584V117ZM257.871 107.701C257.871 110.596 257.209 112.928 255.885 114.697C254.561 116.467 252.768 117.352 250.506 117.352C248.197 117.352 246.381 116.619 245.057 115.154V124.312H241.805V97.9805H244.775L244.934 100.09C246.258 98.4492 248.098 97.6289 250.453 97.6289C252.738 97.6289 254.543 98.4902 255.867 100.213C257.203 101.936 257.871 104.332 257.871 107.402V107.701ZM254.619 107.332C254.619 105.188 254.162 103.494 253.248 102.252C252.334 101.01 251.08 100.389 249.486 100.389C247.518 100.389 246.041 101.262 245.057 103.008V112.096C246.029 113.83 247.518 114.697 249.521 114.697C251.08 114.697 252.316 114.082 253.23 112.852C254.156 111.609 254.619 109.77 254.619 107.332ZM261.158 107.314C261.158 105.451 261.521 103.775 262.248 102.287C262.986 100.799 264.006 99.6504 265.307 98.8418C266.619 98.0332 268.113 97.6289 269.789 97.6289C272.379 97.6289 274.471 98.5254 276.064 100.318C277.67 102.111 278.473 104.496 278.473 107.473V107.701C278.473 109.553 278.115 111.217 277.4 112.693C276.697 114.158 275.684 115.301 274.359 116.121C273.047 116.941 271.535 117.352 269.824 117.352C267.246 117.352 265.154 116.455 263.549 114.662C261.955 112.869 261.158 110.496 261.158 107.543V107.314ZM264.428 107.701C264.428 109.811 264.914 111.504 265.887 112.781C266.871 114.059 268.184 114.697 269.824 114.697C271.477 114.697 272.789 114.053 273.762 112.764C274.734 111.463 275.221 109.646 275.221 107.314C275.221 105.229 274.723 103.541 273.727 102.252C272.742 100.951 271.43 100.301 269.789 100.301C268.184 100.301 266.889 100.939 265.904 102.217C264.92 103.494 264.428 105.322 264.428 107.701ZM290.9 99.0703C293.291 99.0703 295.201 99.873 296.631 101.479C298.072 103.072 298.793 105.176 298.793 107.789V108.088C298.793 109.881 298.447 111.486 297.756 112.904C297.064 114.311 296.068 115.406 294.768 116.191C293.479 116.965 291.99 117.352 290.303 117.352C287.748 117.352 285.691 116.502 284.133 114.803C282.574 113.092 281.795 110.801 281.795 107.93V106.348C281.795 102.352 282.533 99.1758 284.01 96.8203C285.498 94.4648 287.689 93.0293 290.584 92.5137C292.225 92.2207 293.332 91.8633 293.906 91.4414C294.48 91.0195 294.768 90.4395 294.768 89.7012H297.439C297.439 91.166 297.105 92.3086 296.438 93.1289C295.781 93.9492 294.727 94.5293 293.273 94.8691L290.848 95.4141C288.914 95.8711 287.461 96.6445 286.488 97.7344C285.527 98.8125 284.9 100.254 284.607 102.059C286.33 100.066 288.428 99.0703 290.9 99.0703ZM290.268 101.742C288.674 101.742 287.408 102.281 286.471 103.359C285.533 104.426 285.064 105.908 285.064 107.807V108.088C285.064 110.127 285.533 111.744 286.471 112.939C287.42 114.123 288.697 114.715 290.303 114.715C291.92 114.715 293.197 114.117 294.135 112.922C295.072 111.727 295.541 109.98 295.541 107.684C295.541 105.891 295.066 104.455 294.117 103.377C293.18 102.287 291.896 101.742 290.268 101.742ZM317.672 117H314.42V108.879H305.684V117H302.414V97.9805H305.684V106.225H314.42V97.9805H317.672V117ZM322.049 107.314C322.049 105.451 322.412 103.775 323.139 102.287C323.877 100.799 324.896 99.6504 326.197 98.8418C327.51 98.0332 329.004 97.6289 330.68 97.6289C333.27 97.6289 335.361 98.5254 336.955 100.318C338.561 102.111 339.363 104.496 339.363 107.473V107.701C339.363 109.553 339.006 111.217 338.291 112.693C337.588 114.158 336.574 115.301 335.25 116.121C333.938 116.941 332.426 117.352 330.715 117.352C328.137 117.352 326.045 116.455 324.439 114.662C322.846 112.869 322.049 110.496 322.049 107.543V107.314ZM325.318 107.701C325.318 109.811 325.805 111.504 326.777 112.781C327.762 114.059 329.074 114.697 330.715 114.697C332.367 114.697 333.68 114.053 334.652 112.764C335.625 111.463 336.111 109.646 336.111 107.314C336.111 105.229 335.613 103.541 334.617 102.252C333.633 100.951 332.32 100.301 330.68 100.301C329.074 100.301 327.779 100.939 326.795 102.217C325.811 103.494 325.318 105.322 325.318 107.701ZM351.334 117.352C348.756 117.352 346.658 116.508 345.041 114.82C343.424 113.121 342.615 110.854 342.615 108.018V107.42C342.615 105.533 342.973 103.852 343.688 102.375C344.414 100.887 345.422 99.7266 346.711 98.8945C348.012 98.0508 349.418 97.6289 350.93 97.6289C353.402 97.6289 355.324 98.4434 356.695 100.072C358.066 101.701 358.752 104.033 358.752 107.068V108.422H345.867C345.914 110.297 346.459 111.814 347.502 112.975C348.557 114.123 349.893 114.697 351.51 114.697C352.658 114.697 353.631 114.463 354.428 113.994C355.225 113.525 355.922 112.904 356.52 112.131L358.506 113.678C356.912 116.127 354.521 117.352 351.334 117.352ZM350.93 100.301C349.617 100.301 348.516 100.781 347.625 101.742C346.734 102.691 346.184 104.027 345.973 105.75H355.5V105.504C355.406 103.852 354.961 102.574 354.164 101.672C353.367 100.758 352.289 100.301 350.93 100.301ZM381.92 103.184C381.92 102.293 381.58 101.59 380.9 101.074C380.221 100.547 379.289 100.283 378.105 100.283C376.957 100.283 375.996 100.582 375.223 101.18C374.461 101.777 374.08 102.48 374.08 103.289H370.846C370.846 101.637 371.537 100.283 372.92 99.2285C374.303 98.1738 376.031 97.6465 378.105 97.6465C380.332 97.6465 382.066 98.127 383.309 99.0879C384.551 100.037 385.172 101.396 385.172 103.166C385.172 104.021 384.914 104.807 384.398 105.521C383.883 106.236 383.15 106.805 382.201 107.227C384.416 107.977 385.523 109.453 385.523 111.656C385.523 113.402 384.85 114.785 383.502 115.805C382.154 116.824 380.355 117.334 378.105 117.334C375.914 117.334 374.104 116.801 372.674 115.734C371.256 114.656 370.547 113.203 370.547 111.375H373.781C373.781 112.301 374.191 113.098 375.012 113.766C375.844 114.422 376.875 114.75 378.105 114.75C379.348 114.75 380.35 114.463 381.111 113.889C381.873 113.314 382.254 112.57 382.254 111.656C382.254 110.59 381.932 109.828 381.287 109.371C380.654 108.902 379.664 108.668 378.316 108.668H375.064V105.926H378.598C380.812 105.867 381.92 104.953 381.92 103.184ZM401.484 117C401.297 116.625 401.145 115.957 401.027 114.996C399.516 116.566 397.711 117.352 395.613 117.352C393.738 117.352 392.197 116.824 390.99 115.77C389.795 114.703 389.197 113.355 389.197 111.727C389.197 109.746 389.947 108.211 391.447 107.121C392.959 106.02 395.08 105.469 397.811 105.469H400.975V103.975C400.975 102.838 400.635 101.936 399.955 101.268C399.275 100.588 398.273 100.248 396.949 100.248C395.789 100.248 394.816 100.541 394.031 101.127C393.246 101.713 392.854 102.422 392.854 103.254H389.584C389.584 102.305 389.918 101.391 390.586 100.512C391.266 99.6211 392.18 98.918 393.328 98.4023C394.488 97.8867 395.76 97.6289 397.143 97.6289C399.334 97.6289 401.051 98.1797 402.293 99.2812C403.535 100.371 404.18 101.877 404.227 103.799V112.553C404.227 114.299 404.449 115.688 404.895 116.719V117H401.484ZM396.088 114.521C397.107 114.521 398.074 114.258 398.988 113.73C399.902 113.203 400.564 112.518 400.975 111.674V107.771H398.426C394.441 107.771 392.449 108.938 392.449 111.27C392.449 112.289 392.789 113.086 393.469 113.66C394.148 114.234 395.021 114.521 396.088 114.521ZM424.863 117H421.611V108.879H412.875V117H409.605V97.9805H412.875V106.225H421.611V97.9805H424.863V117ZM444.639 97.9805V117H441.369V109.6H436.465L431.982 117H428.467L433.248 109.107C432.029 108.662 431.092 107.977 430.436 107.051C429.791 106.113 429.469 105.023 429.469 103.781C429.469 102.047 430.119 100.652 431.42 99.5977C432.721 98.5312 434.461 97.9922 436.641 97.9805H444.639ZM432.738 103.816C432.738 104.742 433.055 105.492 433.688 106.066C434.32 106.629 435.158 106.916 436.201 106.928H441.369V100.617H436.693C435.486 100.617 434.525 100.916 433.811 101.514C433.096 102.1 432.738 102.867 432.738 103.816ZM463.992 100.617H457.611V117H454.359V100.617H448.102V97.9805H463.992V100.617ZM479.461 97.9805H482.713V117H479.461V103.131L470.689 117H467.438V97.9805H470.689V111.867L479.461 97.9805ZM495.826 117.352C493.248 117.352 491.15 116.508 489.533 114.82C487.916 113.121 487.107 110.854 487.107 108.018V107.42C487.107 105.533 487.465 103.852 488.18 102.375C488.906 100.887 489.914 99.7266 491.203 98.8945C492.504 98.0508 493.91 97.6289 495.422 97.6289C497.895 97.6289 499.816 98.4434 501.188 100.072C502.559 101.701 503.244 104.033 503.244 107.068V108.422H490.359C490.406 110.297 490.951 111.814 491.994 112.975C493.049 114.123 494.385 114.697 496.002 114.697C497.15 114.697 498.123 114.463 498.92 113.994C499.717 113.525 500.414 112.904 501.012 112.131L502.998 113.678C501.404 116.127 499.014 117.352 495.826 117.352ZM495.422 100.301C494.109 100.301 493.008 100.781 492.117 101.742C491.227 102.691 490.676 104.027 490.465 105.75H499.992V105.504C499.898 103.852 499.453 102.574 498.656 101.672C497.859 100.758 496.781 100.301 495.422 100.301Z" fill="black"/>
</g>
<defs>
<filter id="filter0_d" x="0" y="0" width="699" height="228" filterUnits="userSpaceOnUse" color-interpolation-filters="sRGB">
<feFlood flood-opacity="0" result="BackgroundImageFix"/>
<feColorMatrix in="SourceAlpha" type="matrix" values="0 0 0 0 0 0 0 0 0 0 0 0 0 0 0 0 0 0 127 0"/>
<feOffset dx="50" dy="4"/>
<feGaussianBlur stdDeviation="25"/>
<feColorMatrix type="matrix" values="0 0 0 0 0 0 0 0 0 0 0 0 0 0 0 0 0 0 0.25 0"/>
<feBlend mode="normal" in2="BackgroundImageFix" result="effect1_dropShadow"/>
<feBlend mode="normal" in="SourceGraphic" in2="effect1_dropShadow" result="shape"/>
</filter>
<linearGradient id="paint0_linear" x1="299.5" y1="46" x2="299.5" y2="174" gradientUnits="userSpaceOnUse">
<stop offset="0.9999" stop-color="#00FF0A"/>
<stop offset="1" stop-color="#00FF0A" stop-opacity="0"/>
</linearGradient>
</defs>
</svg>
