<svg width="280" height="280" viewBox="0 0 280 280" fill="none" xmlns="http://www.w3.org/2000/svg">
<path d="M179.549 162.874H177.938C181.943 158.977 182.03 152.57 178.133 148.565C177.514 147.929 176.815 147.378 176.053 146.925C179.116 145.096 180.994 141.792 180.999 138.225C180.992 132.622 176.452 128.082 170.849 128.075H157.799V117.925C157.799 117.124 157.149 116.475 156.349 116.476C156.275 116.476 156.201 116.481 156.129 116.492L138.949 119.134V117.78C142.323 117.086 144.745 114.119 144.749 110.675C144.749 104.347 138.78 98.3039 138.525 98.0501C137.958 97.4841 137.041 97.4841 136.474 98.0501C136.219 98.3039 130.25 104.347 130.25 110.675C130.254 114.119 132.676 117.086 136.049 117.78V119.582L118.429 122.294C117.723 122.403 117.201 123.01 117.2 123.725V139.879C116.141 138.737 114.919 137.757 113.575 136.971C113.126 136.712 112.573 136.712 112.125 136.971C107.843 139.459 104.952 143.787 104.295 148.695C103.293 148.49 102.273 148.382 101.25 148.375C100.61 148.378 99.9708 148.419 99.3359 148.499C98.8216 148.561 98.3795 148.893 98.1759 149.369C95.2212 156.3 97.524 164.353 103.696 168.674H94V171.574H97.4539L99.9522 176.572C100.198 177.064 100.7 177.374 101.25 177.374H156.349C157.15 177.374 157.799 176.725 157.799 175.924V171.574H167.053L169.551 176.572C169.797 177.064 170.299 177.374 170.849 177.374H176.649C177.45 177.374 178.099 176.725 178.099 175.924V171.574H179.549C180.35 171.574 180.999 170.925 180.999 170.124V164.324C180.999 163.524 180.35 162.874 179.549 162.874ZM178.099 155.625C178.094 159.627 174.851 162.87 170.849 162.874H144.749C140.745 162.874 137.499 159.629 137.499 155.625C137.499 151.621 140.745 148.375 144.749 148.375H163.599C166.002 148.375 167.949 150.322 167.949 152.725C167.949 155.127 166.002 157.075 163.599 157.075H149.099C148.299 157.075 147.649 156.425 147.649 155.625C147.649 154.824 148.299 154.175 149.099 154.175H159.249V151.275H149.099C146.697 151.275 144.749 153.222 144.749 155.625C144.749 158.027 146.697 159.975 149.099 159.975H163.599C167.601 159.97 170.844 156.727 170.849 152.725C170.844 151.151 170.321 149.622 169.361 148.375H170.849C174.851 148.379 178.094 151.623 178.099 155.625ZM166.499 130.975C168.902 130.975 170.849 132.922 170.849 135.325C170.849 137.727 168.902 139.675 166.499 139.675H151.999C151.199 139.675 150.549 139.026 150.549 138.225C150.549 137.424 151.199 136.775 151.999 136.775H162.149V133.875H151.999C149.597 133.875 147.649 135.822 147.649 138.225C147.649 140.627 149.597 142.575 151.999 142.575H166.499C170.501 142.57 173.744 139.327 173.749 135.325C173.748 133.829 173.279 132.371 172.409 131.155C176.314 132.041 178.761 135.924 177.875 139.829C177.13 143.115 174.219 145.454 170.849 145.475H163.599H150.549C146.545 145.475 143.299 142.229 143.299 138.225C143.299 134.221 146.545 130.975 150.549 130.975H166.499ZM133.15 110.675C133.15 106.968 135.941 103.112 137.499 101.25C139.06 103.111 141.849 106.959 141.849 110.675C141.842 112.512 140.681 114.146 138.949 114.758V112.125H136.049V114.758C134.318 114.146 133.157 112.512 133.15 110.675ZM112.85 139.933C116.089 142.113 118.187 145.625 118.57 149.511C116.407 150.375 114.46 151.701 112.863 153.396C111.254 151.707 109.297 150.39 107.128 149.535C107.505 145.64 109.603 142.118 112.85 139.933ZM120.123 152.012C121.513 151.524 122.976 151.275 124.45 151.275C124.677 151.275 124.915 151.283 125.163 151.299C127.552 158.099 123.976 165.548 117.176 167.937C115.786 168.425 114.323 168.674 112.85 168.674C112.622 168.674 112.384 168.666 112.136 168.65C109.748 161.85 113.323 154.401 120.123 152.012ZM99.7999 155.625C99.7981 154.151 100.047 152.689 100.537 151.299C100.784 151.283 101.022 151.275 101.25 151.275C105.005 151.263 108.578 152.887 111.04 155.722C108.662 159.376 107.911 163.855 108.967 168.086C103.513 166.386 99.7988 161.337 99.7999 155.625ZM123.554 174.474H102.146L100.696 171.574H125.004L123.554 174.474ZM137.499 174.474H126.796L128.246 171.574H131.7V168.674H121.992C128.171 164.359 130.479 156.304 127.524 149.371C127.32 148.894 126.878 148.563 126.364 148.501C124.714 148.289 123.04 148.347 121.409 148.675C121.183 147.062 120.71 145.494 120.007 144.025H120.1V124.969L154.899 119.616V128.075H150.549C144.951 128.067 140.406 132.6 140.399 138.198C140.395 140.978 141.533 143.636 143.546 145.553C137.988 146.209 134.014 151.246 134.669 156.805C134.941 159.111 135.997 161.254 137.66 162.874H136.049C135.249 162.874 134.599 163.524 134.599 164.324V170.124C134.599 170.925 135.249 171.574 136.049 171.574H137.499V174.474ZM143.853 174.474H140.399V171.574H145.303L143.853 174.474ZM154.899 174.474H147.095L148.545 171.574H154.899V174.474ZM175.199 174.474H171.745L170.295 171.574H175.199V174.474ZM178.099 168.674H137.499V165.774H178.099V168.674Z" fill="black"/>
<path d="M125.9 128.075H123V139.675H125.9V128.075Z" fill="black"/>
<path d="M125.9 142.575H123V145.475H125.9V142.575Z" fill="black"/>
<g filter="url(#filter0_f)">
<circle cx="140" cy="140" r="50" fill="#00FF0A"/>
</g>
<defs>
<filter id="filter0_f" x="0" y="0" width="280" height="280" filterUnits="userSpaceOnUse" color-interpolation-filters="sRGB">
<feFlood flood-opacity="0" result="BackgroundImageFix"/>
<feBlend mode="normal" in="SourceGraphic" in2="BackgroundImageFix" result="shape"/>
<feGaussianBlur stdDeviation="45" result="effect1_foregroundBlur"/>
</filter>
</defs>
</svg>
