<svg width="242" height="243" viewBox="0 0 242 243" fill="none" xmlns="http://www.w3.org/2000/svg">
<g filter="url(#filter0_f)">
<ellipse cx="121" cy="121.5" rx="51" ry="51.5" fill="#00FF0A"/>
</g>
<g clip-path="url(#clip0)">
<path d="M171.794 126.443C170.833 116.779 166.516 107.669 159.637 100.791C153.759 94.9123 146.564 91.1349 138.993 89.4553V84.1453C142.085 83.376 144.384 80.577 144.384 77.2502C144.384 73.3321 141.196 70.1446 137.278 70.1446H122.231C118.313 70.1446 115.125 73.3321 115.125 77.2502C115.125 80.5768 117.424 83.3758 120.516 84.1453V89.4701C112.968 91.1568 105.797 94.9291 99.9354 100.791C98.6527 102.074 97.4698 103.419 96.387 104.818C96.3346 104.814 96.2821 104.81 96.2286 104.81H81.3359C80.1819 104.81 79.2461 105.745 79.2461 106.9C79.2461 108.054 80.1819 108.99 81.3359 108.99H93.5433C92.011 111.555 90.7755 114.249 89.835 117.022H67.0899C65.9358 117.022 65 117.958 65 119.112C65 120.266 65.9358 121.202 67.0899 121.202H88.6541C88.0518 123.846 87.7061 126.537 87.6169 129.235H78.3752C77.2212 129.235 76.2853 130.17 76.2853 131.325C76.2853 132.479 77.2212 133.415 78.3752 133.415H87.6835C87.8599 136.12 88.2948 138.811 88.9884 141.447H75.4494C74.2954 141.447 73.3595 142.383 73.3595 143.537C73.3595 144.692 74.2954 145.627 75.4494 145.627H90.3222C92.3724 151.051 95.5764 156.134 99.9354 160.493C106.821 167.378 115.94 171.696 125.613 172.652C126.994 172.788 128.375 172.856 129.755 172.856C137.91 172.856 145.962 170.496 152.794 166.047C153.761 165.417 154.034 164.122 153.404 163.155C152.775 162.188 151.48 161.914 150.513 162.544C135.558 172.282 115.53 170.177 102.891 157.537C88.0607 142.707 88.0607 118.577 102.891 103.746C117.721 88.9165 141.851 88.9165 156.682 103.746C169.304 116.369 171.421 136.38 161.715 151.327C161.087 152.295 161.362 153.59 162.33 154.218C163.298 154.847 164.592 154.572 165.221 153.604C170.406 145.617 172.741 135.971 171.794 126.443ZM119.305 77.2504C119.305 75.637 120.618 74.3246 122.231 74.3246H137.278C138.892 74.3246 140.204 75.637 140.204 77.2504C140.204 78.8638 138.892 80.1762 137.278 80.1762H136.903H122.606H122.231C120.618 80.1762 119.305 78.8636 119.305 77.2504ZM124.696 88.7516V84.356H134.813V88.7441C131.454 88.3445 128.055 88.347 124.696 88.7516Z" fill="black"/>
<path d="M158.16 156.924C157.609 156.924 157.072 157.148 156.683 157.537C156.292 157.925 156.071 158.464 156.071 159.014C156.071 159.564 156.292 160.103 156.683 160.492C157.072 160.882 157.609 161.104 158.16 161.104C158.71 161.104 159.247 160.882 159.638 160.492C160.027 160.103 160.25 159.564 160.25 159.014C160.25 158.464 160.027 157.925 159.638 157.537C159.247 157.148 158.71 156.924 158.16 156.924Z" fill="black"/>
<path d="M129.786 98.2215C111.91 98.2215 97.3663 112.765 97.3663 130.642C97.3663 148.518 111.91 163.062 129.786 163.062C147.663 163.062 162.206 148.518 162.206 130.642C162.206 112.765 147.663 98.2215 129.786 98.2215ZM129.786 158.882C114.215 158.882 101.546 146.213 101.546 130.642C101.546 115.07 114.215 102.401 129.786 102.401C145.358 102.401 158.027 115.07 158.027 130.642C158.027 146.213 145.358 158.882 129.786 158.882Z" fill="black"/>
<path d="M143.006 114.466L132.655 124.817C131.789 124.389 130.816 124.147 129.786 124.147C128.757 124.147 127.783 124.389 126.918 124.817L122.285 120.185C121.469 119.369 120.146 119.369 119.329 120.185C118.513 121.001 118.513 122.324 119.329 123.14L123.962 127.773C123.534 128.638 123.292 129.612 123.292 130.641C123.292 134.222 126.205 137.135 129.786 137.135C133.367 137.135 136.28 134.222 136.28 130.641C136.28 129.612 136.039 128.638 135.611 127.773L145.658 117.725L145.962 117.422C146.778 116.606 146.778 115.282 145.962 114.466C145.145 113.65 143.823 113.65 143.006 114.466ZM129.786 132.956C128.51 132.956 127.472 131.918 127.472 130.642C127.472 129.365 128.51 128.327 129.786 128.327C131.062 128.327 132.101 129.365 132.101 130.642C132.101 131.918 131.062 132.956 129.786 132.956Z" fill="black"/>
<path d="M152.131 128.577H150.195C149.041 128.577 148.105 129.513 148.105 130.667C148.105 131.821 149.041 132.757 150.195 132.757H152.131C153.285 132.757 154.221 131.821 154.221 130.667C154.221 129.513 153.285 128.577 152.131 128.577Z" fill="black"/>
<path d="M109.378 128.526H107.442C106.288 128.526 105.352 129.462 105.352 130.616C105.352 131.77 106.288 132.706 107.442 132.706H109.378C110.532 132.706 111.467 131.77 111.467 130.616C111.467 129.462 110.532 128.526 109.378 128.526Z" fill="black"/>
<path d="M129.812 112.323C130.966 112.323 131.902 111.387 131.902 110.233V108.297C131.902 107.143 130.966 106.207 129.812 106.207C128.658 106.207 127.722 107.143 127.722 108.297V110.233C127.722 111.387 128.658 112.323 129.812 112.323Z" fill="black"/>
<path d="M129.761 148.96C128.607 148.96 127.671 149.896 127.671 151.05V152.986C127.671 154.14 128.607 155.076 129.761 155.076C130.915 155.076 131.851 154.14 131.851 152.986V151.05C131.851 149.896 130.915 148.96 129.761 148.96Z" fill="black"/>
<path d="M67.0898 141.447C66.5402 141.447 66.001 141.67 65.6123 142.059C65.2236 142.448 65 142.987 65 143.536C65 144.088 65.2234 144.625 65.6123 145.014C66.0012 145.403 66.5402 145.626 67.0898 145.626C67.6395 145.626 68.1787 145.403 68.5672 145.014C68.9559 144.625 69.1797 144.086 69.1797 143.536C69.1797 142.987 68.9561 142.448 68.5672 142.059C68.1787 141.67 67.6395 141.447 67.0898 141.447Z" fill="black"/>
</g>
<defs>
<filter id="filter0_f" x="0" y="0" width="242" height="243" filterUnits="userSpaceOnUse" color-interpolation-filters="sRGB">
<feFlood flood-opacity="0" result="BackgroundImageFix"/>
<feBlend mode="normal" in="SourceGraphic" in2="BackgroundImageFix" result="shape"/>
<feGaussianBlur stdDeviation="35" result="effect1_foregroundBlur"/>
</filter>
<clipPath id="clip0">
<rect width="107" height="107" fill="white" transform="translate(65 68)"/>
</clipPath>
</defs>
</svg>
